<?xml version="1.0" encoding="iso-8859-1"?>
<!-- Generator: Adobe Illustrator 19.0.0, SVG Export Plug-In . SVG Version: 6.00 Build 0)  -->
<svg version="1.1" id="Layer_1" xmlns="http://www.w3.org/2000/svg" xmlns:xlink="http://www.w3.org/1999/xlink" x="0px" y="0px"
	 viewBox="0 0 512.001 512.001" style="enable-background:new 0 0 512.001 512.001;" xml:space="preserve">
<path style="fill:#C3C7C9;" d="M51.328,76.466c18.849,0,34.115,15.267,34.115,34.115s-15.267,34.115-34.115,34.115
	s-34.115-15.267-34.115-34.115S32.479,76.466,51.328,76.466z"/>
<polygon style="fill:#31424D;" points="452.183,434.677 452.183,502.908 162.203,502.908 162.203,434.677 204.847,434.677 
	409.539,434.677 "/>
<path style="fill:#445764;" d="M409.539,353.142v81.535H204.847v-81.535c29.425,19.19,64.563,30.363,102.346,30.363
	C344.975,383.505,380.114,372.332,409.539,353.142z"/>
<path style="fill:#7E8488;" d="M307.193,136.168c33.007,0,59.702,26.695,59.702,59.701s-26.695,59.702-59.702,59.702
	s-59.701-26.695-59.701-59.702S274.187,136.168,307.193,136.168z"/>
<path style="fill:#FFD311;" d="M409.539,353.142c-29.425,19.19-64.563,30.363-102.346,30.363s-72.921-11.173-102.346-30.363
	c-51.343-33.433-85.289-91.43-85.289-157.272c0-103.625,84.009-187.635,187.635-187.635S494.828,92.244,494.828,195.87
	C494.828,261.712,460.882,319.709,409.539,353.142z M366.895,195.87c0-33.006-26.695-59.701-59.702-59.701
	s-59.701,26.695-59.701,59.701s26.695,59.702,59.701,59.702S366.895,228.876,366.895,195.87z"/>
<rect x="162.2" y="434.674" style="fill:#1E2E37;" width="289.975" height="34.115"/>
<circle style="fill:#5B6063;" cx="307.188" cy="195.874" r="25.587"/>
<path style="fill:#FDB51E;" d="M204.847,195.87c0-88.949,61.919-163.39,144.99-182.707c-13.706-3.187-27.968-4.927-42.644-4.927
	c-103.625,0-187.635,84.009-187.635,187.635c0,65.842,33.944,123.838,85.289,157.272c29.425,19.19,64.563,30.363,102.346,30.363
	c14.68,0,28.942-1.732,42.644-4.919c-21.564-5.018-41.71-13.71-59.701-25.443C238.792,319.709,204.847,261.712,204.847,195.87z"/>
<path d="M460.828,426.442h-42.644V358.18c53.489-36.671,85.288-96.822,85.288-161.881C503.472,88.059,415.413,0,307.173,0
	S110.877,88.059,110.877,196.299c0,65.06,31.799,125.21,85.288,161.881v34.317c-13.977-1.479-43.511-7.781-71.147-34.217
	c-18.989-18.163-34.083-42.815-44.859-73.268c-12.758-36.051-19.51-80.478-20.125-132.119c19.419-4.04,34.055-21.283,34.055-41.882
	c0-23.588-19.19-42.779-42.779-42.779s-42.78,19.19-42.78,42.778c0,20.641,14.694,37.914,34.17,41.909
	c1.155,101.345,24.935,174.765,70.749,218.274c32.426,30.795,66.746,37.414,82.715,38.759v16.491H153.52v68.23h-42.51v17.328
	h392.327v-17.328h-42.51V426.442z M25.857,111.01c0-14.033,11.418-25.451,25.451-25.451s25.451,11.418,25.451,25.451
	s-11.418,25.451-25.451,25.451S25.857,125.044,25.857,111.01z M128.204,196.299c0-98.685,80.286-178.971,178.969-178.971
	c98.685,0,178.971,80.286,178.971,178.971c0,60.762-30.411,116.841-81.356,150.015c-29.047,18.943-62.801,28.956-97.615,28.956
	c-34.813,0-68.566-10.012-97.613-28.956l-0.005-0.003C158.616,313.14,128.204,257.06,128.204,196.299z M400.857,368.803v57.639
	H213.492v-57.639c28.656,15.596,60.735,23.795,93.682,23.795C340.122,392.596,372.204,384.398,400.857,368.803z M443.5,494.672
	H170.848V443.77H443.5V494.672z"/>
<rect x="230.414" y="460.562" style="fill:#FFFFFF;" width="153.524" height="17.328"/>
<rect x="400.989" y="460.562" width="17.059" height="17.328"/>
<rect x="196.302" y="460.562" width="17.058" height="17.328"/>
<path d="M238.809,196.299c0,37.697,30.668,68.366,68.365,68.366s68.366-30.669,68.366-68.366s-30.669-68.366-68.366-68.366
	S238.809,158.602,238.809,196.299z M358.212,196.299c0,28.143-22.895,51.038-51.039,51.038c-28.142,0-51.037-22.896-51.037-51.039
	s22.895-51.039,51.037-51.039C335.317,145.26,358.212,168.156,358.212,196.299z"/>
<path d="M290.252,196.299c0-9.332,7.591-16.922,16.921-16.922v-17.328c-18.886,0-34.249,15.364-34.249,34.25
	s15.364,34.25,34.249,34.25s34.25-15.365,34.25-34.25h-17.328c0,9.332-7.591,16.922-16.922,16.922
	C297.843,213.221,290.252,205.629,290.252,196.299z"/>
<path style="fill:#FFFFFF;" d="M307.173,77.03V59.702c-75.319,0-136.596,61.277-136.596,136.596h17.328
	C187.905,130.534,241.409,77.03,307.173,77.03z"/>
<path d="M307.173,332.895c75.319,0,136.596-61.277,136.596-136.596h-17.328c0,65.765-53.504,119.269-119.269,119.269V332.895z"/>
<rect x="170.714" y="213.225" width="17.059" height="17.328"/>
<g>
	<rect x="426.577" y="162.05" style="fill:#FFFFFF;" width="17.059" height="17.328"/>
	<rect x="42.777" y="102.35" style="fill:#FFFFFF;" width="17.059" height="17.328"/>
</g>
<g>
</g>
<g>
</g>
<g>
</g>
<g>
</g>
<g>
</g>
<g>
</g>
<g>
</g>
<g>
</g>
<g>
</g>
<g>
</g>
<g>
</g>
<g>
</g>
<g>
</g>
<g>
</g>
<g>
</g>
</svg>
