<?xml version="1.0" encoding="UTF-8" standalone="no" ?>
<!DOCTYPE svg PUBLIC "-//W3C//DTD SVG 1.1//EN" "http://www.w3.org/Graphics/SVG/1.1/DTD/svg11.dtd">
<svg xmlns="http://www.w3.org/2000/svg" xmlns:xlink="http://www.w3.org/1999/xlink" version="1.1" width="50" height="52" viewBox="0 0 50 52" xml:space="preserve">
<desc>Created with Fabric.js 4.6.0</desc>
<defs>
</defs>
<g transform="matrix(0.1 0 0 0.1 24.94 25.8)" id="Qi5aHQNjT3S1eEZ4tIiK0"  >
<g style="" vector-effect="non-scaling-stroke"   >
		<g transform="matrix(1 0 0 1 -204.67 -145.42)" id="kHPNhCmTQNJW01P6zac3F"  >
<path style="stroke: none; stroke-width: 1; stroke-dasharray: none; stroke-linecap: butt; stroke-dashoffset: 0; stroke-linejoin: miter; stroke-miterlimit: 4; fill: rgb(195,199,201); fill-rule: nonzero; opacity: 1;" vector-effect="non-scaling-stroke"  transform=" translate(-51.33, -110.58)" d="M 51.328 76.466 C 70.177 76.466 85.44300000000001 91.73299999999999 85.44300000000001 110.58099999999999 C 85.44300000000001 129.42899999999997 70.17600000000002 144.696 51.32800000000001 144.696 C 32.480000000000004 144.696 17.213000000000008 129.429 17.213000000000008 110.58099999999999 C 17.213000000000008 91.73299999999998 32.479 76.466 51.328 76.466 z" stroke-linecap="round" />
</g>
		<g transform="matrix(1 0 0 1 51.19 212.79)" id="gjkARXIHzjj9d7tZ-Dh2L"  >
<path style="stroke: none; stroke-width: 1; stroke-dasharray: none; stroke-linecap: butt; stroke-dashoffset: 0; stroke-linejoin: miter; stroke-miterlimit: 4; fill: rgb(49,66,77); fill-rule: nonzero; opacity: 1;" vector-effect="non-scaling-stroke"  transform=" translate(-307.19, -468.79)" d="M 452.183 434.677 L 452.183 502.908 L 162.20299999999997 502.908 L 162.20299999999997 434.677 L 204.84699999999998 434.677 L 409.539 434.677 z" stroke-linecap="round" />
</g>
		<g transform="matrix(1 0 0 1 51.19 137.91)" id="ZNfJ8jIZ8LCDeIQL98nJs"  >
<path style="stroke: none; stroke-width: 1; stroke-dasharray: none; stroke-linecap: butt; stroke-dashoffset: 0; stroke-linejoin: miter; stroke-miterlimit: 4; fill: rgb(68,87,100); fill-rule: nonzero; opacity: 1;" vector-effect="non-scaling-stroke"  transform=" translate(-307.19, -393.91)" d="M 409.539 353.142 L 409.539 434.677 L 204.847 434.677 L 204.847 353.14200000000005 C 234.27200000000002 372.33200000000005 269.41 383.50500000000005 307.193 383.50500000000005 C 344.975 383.505 380.114 372.332 409.539 353.142 z" stroke-linecap="round" />
</g>
		<g transform="matrix(1 0 0 1 51.19 -60.13)" id="NZOw1RlNYWXkojSB_20tu"  >
<path style="stroke: none; stroke-width: 1; stroke-dasharray: none; stroke-linecap: butt; stroke-dashoffset: 0; stroke-linejoin: miter; stroke-miterlimit: 4; fill: rgb(126,132,136); fill-rule: nonzero; opacity: 1;" vector-effect="non-scaling-stroke"  transform=" translate(-307.19, -195.87)" d="M 307.193 136.168 C 340.2 136.168 366.895 162.863 366.895 195.869 C 366.895 228.875 340.2 255.571 307.193 255.571 C 274.186 255.571 247.492 228.876 247.492 195.869 C 247.492 162.862 274.187 136.168 307.193 136.168 z" stroke-linecap="round" />
</g>
		<g transform="matrix(1 0 0 1 51.19 -60.13)" id="CS_0vs9ukOLif8_bxE9BW"  >
<path style="stroke: none; stroke-width: 1; stroke-dasharray: none; stroke-linecap: butt; stroke-dashoffset: 0; stroke-linejoin: miter; stroke-miterlimit: 4; fill: rgb(255,211,17); fill-rule: nonzero; opacity: 1;" vector-effect="non-scaling-stroke"  transform=" translate(-307.19, -195.87)" d="M 409.539 353.142 C 380.114 372.332 344.976 383.505 307.193 383.505 C 269.40999999999997 383.505 234.272 372.332 204.84699999999998 353.142 C 153.50399999999996 319.709 119.55799999999998 261.712 119.55799999999998 195.87 C 119.55799999999998 92.245 203.56699999999998 8.235000000000014 307.193 8.235000000000014 C 410.81899999999996 8.235000000000014 494.828 92.244 494.828 195.87 C 494.828 261.712 460.882 319.709 409.539 353.142 z M 366.895 195.87 C 366.895 162.864 340.2 136.169 307.193 136.169 C 274.186 136.169 247.492 162.864 247.492 195.87 C 247.492 228.876 274.187 255.572 307.193 255.572 C 340.19899999999996 255.572 366.895 228.876 366.895 195.87 z" stroke-linecap="round" />
</g>
		<g transform="matrix(1 0 0 1 51.19 195.73)" id="-CLz3-XtIHHzTKhqyKw2q"  >
<path style="stroke: none; stroke-width: 1; stroke-dasharray: none; stroke-linecap: butt; stroke-dashoffset: 0; stroke-linejoin: miter; stroke-miterlimit: 4; fill: rgb(30,46,55); fill-rule: nonzero; opacity: 1;" vector-effect="non-scaling-stroke"  transform=" translate(-144.99, -17.06)" d="M 0 34.115 L 0 0 L 289.975 0 L 289.975 34.115 z" stroke-linecap="round" />
</g>
		<g transform="matrix(1 0 0 1 51.19 -60.13)" id="oXX93enE2UBCNe7QlhMrg"  >
<path style="stroke: none; stroke-width: 1; stroke-dasharray: none; stroke-linecap: butt; stroke-dashoffset: 0; stroke-linejoin: miter; stroke-miterlimit: 4; fill: rgb(91,96,99); fill-rule: nonzero; opacity: 1;" vector-effect="non-scaling-stroke"  transform=" translate(-25.59, -25.59)" d="M 0 25.587 C 0 11.45569 11.45569 0 25.587 0 C 39.71831 0 51.174 11.45569 51.174 25.587 C 51.174 39.71831 39.71831 51.174 25.587 51.174 C 11.45569 51.174 0 39.71831 0 25.587 z" stroke-linecap="round" />
</g>
		<g transform="matrix(1 0 0 1 -21.3 -60.13)" id="58nqgErDry-M8CQ8bhsW1"  >
<path style="stroke: none; stroke-width: 1; stroke-dasharray: none; stroke-linecap: butt; stroke-dashoffset: 0; stroke-linejoin: miter; stroke-miterlimit: 4; fill: rgb(253,181,30); fill-rule: nonzero; opacity: 1;" vector-effect="non-scaling-stroke"  transform=" translate(-234.7, -195.87)" d="M 204.847 195.87 C 204.847 106.921 266.766 32.48000000000002 349.837 13.163000000000011 C 336.131 9.976000000000012 321.86899999999997 8.236000000000011 307.193 8.236000000000011 C 203.56799999999998 8.236000000000011 119.55799999999999 92.245 119.55799999999999 195.871 C 119.55799999999999 261.713 153.502 319.709 204.84699999999998 353.14300000000003 C 234.272 372.333 269.40999999999997 383.50600000000003 307.193 383.50600000000003 C 321.873 383.50600000000003 336.135 381.774 349.837 378.58700000000005 C 328.27299999999997 373.5690000000001 308.127 364.87700000000007 290.13599999999997 353.14400000000006 C 238.792 319.709 204.847 261.712 204.847 195.87 z" stroke-linecap="round" />
</g>
		<g transform="matrix(1 0 0 1 0 0)" id="OgW91Wok5FbDE1UFnQJ50"  >
<path style="stroke: none; stroke-width: 1; stroke-dasharray: none; stroke-linecap: butt; stroke-dashoffset: 0; stroke-linejoin: miter; stroke-miterlimit: 4; fill: rgb(0,0,0); fill-rule: nonzero; opacity: 1;" vector-effect="non-scaling-stroke"  transform=" translate(-256, -256)" d="M 460.828 426.442 L 418.18399999999997 426.442 L 418.18399999999997 358.18 C 471.67299999999994 321.509 503.472 261.358 503.472 196.299 C 503.472 88.059 415.413 0 307.173 0 C 198.933 0 110.877 88.059 110.877 196.299 C 110.877 261.35900000000004 142.676 321.509 196.165 358.18 L 196.165 392.497 C 182.188 391.01800000000003 152.654 384.716 125.01799999999999 358.28000000000003 C 106.02899999999998 340.117 90.93499999999999 315.46500000000003 80.15899999999999 285.01200000000006 C 67.401 248.96100000000007 60.64899999999999 204.53400000000005 60.03399999999999 152.89300000000006 C 79.45299999999999 148.85300000000007 94.089 131.61000000000007 94.089 111.01100000000005 C 94.089 87.42300000000006 74.899 68.23200000000006 51.309999999999995 68.23200000000006 C 27.72099999999999 68.23200000000006 8.529999999999994 87.42200000000005 8.529999999999994 111.01000000000005 C 8.529999999999994 131.65100000000004 23.223999999999997 148.92400000000004 42.699999999999996 152.91900000000004 C 43.855 254.26400000000004 67.63499999999999 327.684 113.44899999999998 371.19300000000004 C 145.875 401.98800000000006 180.195 408.607 196.164 409.95200000000006 L 196.164 426.44300000000004 L 153.52 426.44300000000004 L 153.52 494.67300000000006 L 111.01000000000002 494.67300000000006 L 111.01000000000002 512.0010000000001 L 503.337 512.0010000000001 L 503.337 494.6730000000001 L 460.827 494.6730000000001 L 460.827 426.442 z M 25.857 111.01 C 25.857 96.977 37.275 85.559 51.308 85.559 C 65.34100000000001 85.559 76.759 96.977 76.759 111.00999999999999 C 76.759 125.04299999999998 65.34100000000001 136.46099999999998 51.308 136.46099999999998 C 37.27499999999999 136.46099999999998 25.857 125.044 25.857 111.01 z M 128.204 196.299 C 128.204 97.614 208.49 17.328000000000003 307.173 17.328000000000003 C 405.858 17.328000000000003 486.144 97.614 486.144 196.299 C 486.144 257.06100000000004 455.733 313.14 404.788 346.31399999999996 C 375.741 365.25699999999995 341.987 375.27 307.173 375.27 C 272.36 375.27 238.607 365.258 209.56 346.31399999999996 L 209.555 346.311 C 158.616 313.14 128.204 257.06 128.204 196.299 z M 400.857 368.803 L 400.857 426.442 L 213.492 426.442 L 213.492 368.803 C 242.148 384.399 274.227 392.598 307.174 392.598 C 340.122 392.596 372.204 384.398 400.857 368.803 z M 443.5 494.672 L 170.848 494.672 L 170.848 443.77 L 443.5 443.77 L 443.5 494.672 z" stroke-linecap="round" />
</g>
		<g transform="matrix(1 0 0 1 51.18 213.23)" id="sMeRNOu_szzn6MgvZgvZO"  >
<path style="stroke: none; stroke-width: 1; stroke-dasharray: none; stroke-linecap: butt; stroke-dashoffset: 0; stroke-linejoin: miter; stroke-miterlimit: 4; fill: rgb(255,255,255); fill-rule: nonzero; opacity: 1;" vector-effect="non-scaling-stroke"  transform=" translate(-76.76, -8.66)" d="M 0 17.328 L 0 0 L 153.524 0 L 153.524 17.328 z" stroke-linecap="round" />
</g>
		<g transform="matrix(1 0 0 1 153.52 213.23)" id="OGiOZ-O-Pm0PrHd5etiNS"  >
<path style="stroke: none; stroke-width: 1; stroke-dasharray: none; stroke-linecap: butt; stroke-dashoffset: 0; stroke-linejoin: miter; stroke-miterlimit: 4; fill: rgb(0,0,0); fill-rule: nonzero; opacity: 1;" vector-effect="non-scaling-stroke"  transform=" translate(-8.53, -8.66)" d="M 0 17.328 L 0 0 L 17.059 0 L 17.059 17.328 z" stroke-linecap="round" />
</g>
		<g transform="matrix(1 0 0 1 -51.17 213.23)" id="zPq1X5CtzB4h4Cc8STCbU"  >
<path style="stroke: none; stroke-width: 1; stroke-dasharray: none; stroke-linecap: butt; stroke-dashoffset: 0; stroke-linejoin: miter; stroke-miterlimit: 4; fill: rgb(0,0,0); fill-rule: nonzero; opacity: 1;" vector-effect="non-scaling-stroke"  transform=" translate(-8.53, -8.66)" d="M 0 17.328 L 0 0 L 17.058 0 L 17.058 17.328 z" stroke-linecap="round" />
</g>
		<g transform="matrix(1 0 0 1 51.17 -59.7)" id="FSFsJ5BZSMAMebxN5rhvw"  >
<path style="stroke: none; stroke-width: 1; stroke-dasharray: none; stroke-linecap: butt; stroke-dashoffset: 0; stroke-linejoin: miter; stroke-miterlimit: 4; fill: rgb(0,0,0); fill-rule: nonzero; opacity: 1;" vector-effect="non-scaling-stroke"  transform=" translate(-307.17, -196.3)" d="M 238.809 196.299 C 238.809 233.996 269.477 264.665 307.174 264.665 C 344.871 264.665 375.53999999999996 233.996 375.53999999999996 196.29900000000004 C 375.53999999999996 158.60200000000006 344.871 127.93300000000004 307.174 127.93300000000004 C 269.477 127.93300000000004 238.809 158.602 238.809 196.299 z M 358.212 196.299 C 358.212 224.442 335.317 247.337 307.173 247.337 C 279.031 247.337 256.136 224.44099999999997 256.136 196.298 C 256.136 168.15500000000003 279.031 145.25900000000001 307.173 145.25900000000001 C 335.317 145.26 358.212 168.156 358.212 196.299 z" stroke-linecap="round" />
</g>
		<g transform="matrix(1 0 0 1 51.17 -59.7)" id="8vJW_9UZZ2EDCNeCSHvmY"  >
<path style="stroke: none; stroke-width: 1; stroke-dasharray: none; stroke-linecap: butt; stroke-dashoffset: 0; stroke-linejoin: miter; stroke-miterlimit: 4; fill: rgb(0,0,0); fill-rule: nonzero; opacity: 1;" vector-effect="non-scaling-stroke"  transform=" translate(-307.17, -196.3)" d="M 290.252 196.299 C 290.252 186.967 297.843 179.377 307.173 179.377 L 307.173 162.049 C 288.287 162.049 272.924 177.413 272.924 196.299 C 272.924 215.185 288.28799999999995 230.549 307.173 230.549 C 326.05800000000005 230.549 341.423 215.184 341.423 196.299 L 324.095 196.299 C 324.095 205.631 316.504 213.221 307.173 213.221 C 297.843 213.221 290.252 205.629 290.252 196.299 z" stroke-linecap="round" />
</g>
		<g transform="matrix(1 0 0 1 -17.13 -128)" id="FMgcaAoljZ6zVRvZHTeZX"  >
<path style="stroke: none; stroke-width: 1; stroke-dasharray: none; stroke-linecap: butt; stroke-dashoffset: 0; stroke-linejoin: miter; stroke-miterlimit: 4; fill: rgb(255,255,255); fill-rule: nonzero; opacity: 1;" vector-effect="non-scaling-stroke"  transform=" translate(-238.88, -128)" d="M 307.173 77.03 L 307.173 59.702 C 231.85399999999998 59.702 170.577 120.979 170.577 196.298 L 187.905 196.298 C 187.905 130.534 241.409 77.03 307.173 77.03 z" stroke-linecap="round" />
</g>
		<g transform="matrix(1 0 0 1 119.47 8.6)" id="IP6lwVHccK3ro3TSiCOIP"  >
<path style="stroke: none; stroke-width: 1; stroke-dasharray: none; stroke-linecap: butt; stroke-dashoffset: 0; stroke-linejoin: miter; stroke-miterlimit: 4; fill: rgb(0,0,0); fill-rule: nonzero; opacity: 1;" vector-effect="non-scaling-stroke"  transform=" translate(-375.47, -264.6)" d="M 307.173 332.895 C 382.492 332.895 443.769 271.618 443.769 196.29899999999998 L 426.44100000000003 196.29899999999998 C 426.44100000000003 262.06399999999996 372.937 315.568 307.172 315.568 L 307.172 332.895 z" stroke-linecap="round" />
</g>
		<g transform="matrix(1 0 0 1 -76.76 -34.11)" id="2Lit14yiFkJHPXndHhV_u"  >
<path style="stroke: none; stroke-width: 1; stroke-dasharray: none; stroke-linecap: butt; stroke-dashoffset: 0; stroke-linejoin: miter; stroke-miterlimit: 4; fill: rgb(0,0,0); fill-rule: nonzero; opacity: 1;" vector-effect="non-scaling-stroke"  transform=" translate(-8.53, -8.66)" d="M 0 17.328 L 0 0 L 17.059 0 L 17.059 17.328 z" stroke-linecap="round" />
</g>
		<g transform="matrix(1 0 0 1 179.11 -85.29)" id="SxqYM1yk7yxk7maFjF4PL"  >
<path style="stroke: none; stroke-width: 1; stroke-dasharray: none; stroke-linecap: butt; stroke-dashoffset: 0; stroke-linejoin: miter; stroke-miterlimit: 4; fill: rgb(255,255,255); fill-rule: nonzero; opacity: 1;" vector-effect="non-scaling-stroke"  transform=" translate(-8.53, -8.66)" d="M 0 17.328 L 0 0 L 17.059 0 L 17.059 17.328 z" stroke-linecap="round" />
</g>
		<g transform="matrix(1 0 0 1 -204.69 -144.99)" id="qQh603jnsycp0CL9KSjul"  >
<path style="stroke: none; stroke-width: 1; stroke-dasharray: none; stroke-linecap: butt; stroke-dashoffset: 0; stroke-linejoin: miter; stroke-miterlimit: 4; fill: rgb(255,255,255); fill-rule: nonzero; opacity: 1;" vector-effect="non-scaling-stroke"  transform=" translate(-8.53, -8.66)" d="M 0 17.328 L 0 0 L 17.059 0 L 17.059 17.328 z" stroke-linecap="round" />
</g>
</g>
</g>
</svg>