<?xml version="1.0" encoding="UTF-8" standalone="no"?>
<!DOCTYPE svg PUBLIC "-//W3C//DTD SVG 1.1//EN" "http://www.w3.org/Graphics/SVG/1.1/DTD/svg11.dtd">
<svg width="100%" height="100%" viewBox="0 0 40 64" version="1.1" xmlns="http://www.w3.org/2000/svg" xmlns:xlink="http://www.w3.org/1999/xlink" xml:space="preserve" xmlns:serif="http://www.serif.com/" style="fill-rule:evenodd;clip-rule:evenodd;stroke-linejoin:round;stroke-miterlimit:2;">
    <g transform="matrix(0.625,0,0,1,0,0)">
        <g transform="matrix(1.76687,0,0,1.33325,-24.5441,-10.666)">
            <path d="M21.04,20.63C21.04,20.63 19.25,29.62 20.08,32.1C20.08,32.1 21.18,18.5 31.75,8C31.75,8 31.41,16.79 36.9,21.25C42.39,25.71 43.63,32.65 43.63,32.65C43.63,32.65 44.25,27.91 42.39,20.32C42.39,20.32 54.06,32.44 48.71,45.97C48.71,45.97 42.26,60.87 23.79,54.35C5.32,47.83 17.74,22.97 21.04,20.63Z" style="fill:rgb(255,77,32);fill-rule:nonzero;"/>
        </g>
        <g transform="matrix(1.76687,0,0,1.33325,-24.5441,-10.666)">
            <path d="M40.75,32.12C40.92,35.93 39.2,36.93 37.81,37.13C36.92,37.26 36.02,37.03 35.24,36.6C27.59,32.45 31.52,22.31 31.52,22.31C26.51,27.1 29.12,37.05 29.12,37.05C29.12,37.05 30.67,42.69 27.5,43.18C25.91,43.43 25.17,42.79 24.83,42.1C24.52,41.46 24.52,40.71 24.79,40.05C26.94,34.71 25.1,31.69 25.1,31.69C24.07,34.75 22.98,36.77 22.19,37.98C21.07,39.7 20.36,41.66 20.26,43.71C19.9,51.35 26.3,54.4 26.3,54.4C36.81,59.76 41.53,49.96 41.53,49.96C46.96,39.52 40.75,32.12 40.75,32.12Z" style="fill:rgb(255,200,38);fill-rule:nonzero;"/>
        </g>
    </g>
</svg>
